# xmcd CD database file
#
# Track frame offsets:
#	150
#	19393
#	36643
#	62218
#	90943
#	122968
#	141643
#	171418
#	196318
#	223993
#	245593
#	267493
#	288493
#	309193
#
# Disc length: 4374 seconds
#
# Revision: 0
# Processed by: cddbd v1.5.2PL0 Copyright (c) Steve Scherf et al.
# Submitted via: CDex 1.51
#
DISCID=e611140e
DTITLE=Artisti Vari - A story of Jazz   Cd3  Contemporary notes 
DYEAR=1900
DGENRE=Jazz
TTITLE0=St Germain - Rose rouge
TTITLE1=Cassandra Wilson - Someday my prince will come
TTITLE2=Jacky Terrasson - Le jardin d'hiver
TTITLE3=Patricia Barber - pieces
TTITLE4=Stefano Di Battista - Round Midnight
TTITLE5=Charlie Hunter - More than this
TTITLE6=Kurt Elling - In the winelight
TTITLE7=Pat Martino - Earthlings
TTITLE8=Gonzalo Rubalcaba - Supernova
TTITLE9=Bobby McFerrin - Don't worry be happy
TTITLE10=Buddy rich big band - The beat goes on
TTITLE11=Dianne Reeves - Lullaby of birdland
TTITLE12=Holly Cole - Calling you
TTITLE13=Tania Maria - Besame mucho
EXTD=
EXTT0=
EXTT1=
EXTT2=
EXTT3=
EXTT4=
EXTT5=
EXTT6=
EXTT7=
EXTT8=
EXTT9=
EXTT10=
EXTT11=
EXTT12=
EXTT13=
PLAYORDER=
